<svg width="20" height="20" viewBox="0 0 20 20" fill="none" xmlns="http://www.w3.org/2000/svg">
<path d="M12.9167 10.8333C15.9082 10.8333 18.3333 10.0871 18.3333 9.16667C18.3333 8.24619 15.9082 7.5 12.9167 7.5C9.92512 7.5 7.5 8.24619 7.5 9.16667C7.5 10.0871 9.92512 10.8333 12.9167 10.8333Z" stroke="#1D2939" stroke-width="1.5"/>
<path d="M18.3333 12.9167C18.3333 13.8372 15.9083 14.5834 12.9167 14.5834C9.92508 14.5834 7.5 13.8372 7.5 12.9167" stroke="#1D2939" stroke-width="1.5"/>
<path d="M18.3333 9.16675V16.5001C18.3333 17.5126 15.9083 18.3334 12.9167 18.3334C9.92508 18.3334 7.5 17.5126 7.5 16.5001V9.16675" stroke="#1D2939" stroke-width="1.5"/>
<path d="M7.08366 5.00008C10.0752 5.00008 12.5003 4.25389 12.5003 3.33341C12.5003 2.41294 10.0752 1.66675 7.08366 1.66675C4.09212 1.66675 1.66699 2.41294 1.66699 3.33341C1.66699 4.25389 4.09212 5.00008 7.08366 5.00008Z" stroke="#1D2939" stroke-width="1.5"/>
<path d="M5.00033 9.16667C3.42382 8.97483 1.97525 8.47875 1.66699 7.5M5.00033 13.3333C3.42382 13.1415 1.97525 12.6454 1.66699 11.6667" stroke="#1D2939" stroke-width="1.5" stroke-linecap="round"/>
<path d="M5.00033 17.4999C3.42382 17.3081 1.97525 16.812 1.66699 15.8333V3.33325" stroke="#1D2939" stroke-width="1.5" stroke-linecap="round"/>
<path d="M12.5 4.99992V3.33325" stroke="#1D2939" stroke-width="1.5" stroke-linecap="round"/>
</svg>
