<svg width="20" height="20" viewBox="0 0 20 20" fill="none" xmlns="http://www.w3.org/2000/svg">
<path d="M1.66699 5.00008C1.66699 3.42873 1.66699 2.64306 2.15515 2.15491C2.6433 1.66675 3.42898 1.66675 5.00033 1.66675C6.57168 1.66675 7.35735 1.66675 7.8455 2.15491C8.33366 2.64306 8.33366 3.42873 8.33366 5.00008V6.66675C8.33366 8.2381 8.33366 9.02375 7.8455 9.51191C7.35735 10.0001 6.57168 10.0001 5.00033 10.0001C3.42898 10.0001 2.6433 10.0001 2.15515 9.51191C1.66699 9.02375 1.66699 8.2381 1.66699 6.66675V5.00008Z" stroke="#1D2939" stroke-width="1.5"/>
<path d="M1.66699 15.8333C1.66699 15.0567 1.66699 14.6684 1.79386 14.3621C1.96302 13.9538 2.28748 13.6293 2.69585 13.4601C3.00214 13.3333 3.39043 13.3333 4.16699 13.3333H5.83366C6.61023 13.3333 6.99851 13.3333 7.3048 13.4601C7.71318 13.6293 8.03763 13.9538 8.20679 14.3621C8.33366 14.6684 8.33366 15.0567 8.33366 15.8333C8.33366 16.6098 8.33366 16.9981 8.20679 17.3044C8.03763 17.7128 7.71318 18.0373 7.3048 18.2064C6.99851 18.3333 6.61023 18.3333 5.83366 18.3333H4.16699C3.39043 18.3333 3.00214 18.3333 2.69585 18.2064C2.28748 18.0373 1.96302 17.7128 1.79386 17.3044C1.66699 16.9981 1.66699 16.6098 1.66699 15.8333Z" stroke="#1D2939" stroke-width="1.5"/>
<path d="M11.667 13.3333C11.667 11.762 11.667 10.9763 12.1552 10.4882C12.6433 10 13.429 10 15.0003 10C16.5717 10 17.3573 10 17.8455 10.4882C18.3337 10.9763 18.3337 11.762 18.3337 13.3333V15C18.3337 16.5713 18.3337 17.357 17.8455 17.8452C17.3573 18.3333 16.5717 18.3333 15.0003 18.3333C13.429 18.3333 12.6433 18.3333 12.1552 17.8452C11.667 17.357 11.667 16.5713 11.667 15V13.3333Z" stroke="#1D2939" stroke-width="1.5"/>
<path d="M11.667 4.16675C11.667 3.39018 11.667 3.0019 11.7938 2.69561C11.963 2.28723 12.2875 1.96277 12.6958 1.79361C13.0022 1.66675 13.3904 1.66675 14.167 1.66675H15.8337C16.6102 1.66675 16.9985 1.66675 17.3048 1.79361C17.7132 1.96277 18.0377 2.28723 18.2068 2.69561C18.3337 3.0019 18.3337 3.39018 18.3337 4.16675C18.3337 4.94331 18.3337 5.3316 18.2068 5.63789C18.0377 6.04626 17.7132 6.37072 17.3048 6.53988C16.9985 6.66675 16.6102 6.66675 15.8337 6.66675H14.167C13.3904 6.66675 13.0022 6.66675 12.6958 6.53988C12.2875 6.37072 11.963 6.04626 11.7938 5.63789C11.667 5.3316 11.667 4.94331 11.667 4.16675Z" stroke="#1D2939" stroke-width="1.5"/>
</svg>
