<svg width="20" height="20" viewBox="0 0 20 20" fill="none" xmlns="http://www.w3.org/2000/svg">
<path d="M2.08301 10.0002C2.08301 6.26821 2.08301 4.40224 3.24237 3.24286C4.40175 2.0835 6.26772 2.0835 9.99967 2.0835C13.7316 2.0835 15.5976 2.0835 16.757 3.24286C17.9163 4.40224 17.9163 6.26821 17.9163 10.0002C17.9163 13.7321 17.9163 15.5981 16.757 16.7575C15.5976 17.9168 13.7316 17.9168 9.99967 17.9168C6.26772 17.9168 4.40175 17.9168 3.24237 16.7575C2.08301 15.5981 2.08301 13.7321 2.08301 10.0002Z" stroke="#1D2939" stroke-width="1.5"/>
<path d="M9.16699 5.8335H14.167" stroke="#1D2939" stroke-width="1.5" stroke-linecap="round"/>
<path d="M5.83301 5.8335H6.66634" stroke="#1D2939" stroke-width="1.5" stroke-linecap="round"/>
<path d="M5.83301 10H6.66634" stroke="#1D2939" stroke-width="1.5" stroke-linecap="round"/>
<path d="M5.83301 14.1665H6.66634" stroke="#1D2939" stroke-width="1.5" stroke-linecap="round"/>
<path d="M9.16699 10H14.167" stroke="#1D2939" stroke-width="1.5" stroke-linecap="round"/>
<path d="M9.16699 14.1665H14.167" stroke="#1D2939" stroke-width="1.5" stroke-linecap="round"/>
</svg>
