<svg width="20" height="20" viewBox="0 0 20 20" fill="none" xmlns="http://www.w3.org/2000/svg">
<path d="M12.9167 10.8333C15.9082 10.8333 18.3333 10.0871 18.3333 9.16667C18.3333 8.24619 15.9082 7.5 12.9167 7.5C9.92512 7.5 7.5 8.24619 7.5 9.16667C7.5 10.0871 9.92512 10.8333 12.9167 10.8333Z" stroke="#1D2939" stroke-width="1.5"/>
<path d="M18.3333 12.9165C18.3333 13.837 15.9083 14.5832 12.9167 14.5832C9.92508 14.5832 7.5 13.837 7.5 12.9165" stroke="#1D2939" stroke-width="1.5"/>
<path d="M18.3333 9.1665V16.4998C18.3333 17.5123 15.9083 18.3332 12.9167 18.3332C9.92508 18.3332 7.5 17.5123 7.5 16.4998V9.1665" stroke="#1D2939" stroke-width="1.5"/>
<path d="M7.08366 4.99984C10.0752 4.99984 12.5003 4.25365 12.5003 3.33317C12.5003 2.4127 10.0752 1.6665 7.08366 1.6665C4.09212 1.6665 1.66699 2.4127 1.66699 3.33317C1.66699 4.25365 4.09212 4.99984 7.08366 4.99984Z" stroke="#1D2939" stroke-width="1.5"/>
<path d="M5.00033 9.16667C3.42382 8.97483 1.97525 8.47875 1.66699 7.5M5.00033 13.3333C3.42382 13.1415 1.97525 12.6454 1.66699 11.6667" stroke="#1D2939" stroke-width="1.5" stroke-linecap="round"/>
<path d="M5.00033 17.5002C3.42382 17.3083 1.97525 16.8122 1.66699 15.8335V3.3335" stroke="#1D2939" stroke-width="1.5" stroke-linecap="round"/>
<path d="M12.5 5.00016V3.3335" stroke="#1D2939" stroke-width="1.5" stroke-linecap="round"/>
</svg>
